<svg width="149" height="100" viewBox="0 0 149 100" fill="none" xmlns="http://www.w3.org/2000/svg">
<path d="M33.6797 36.5586C33.6797 36.0508 33.6016 35.5951 33.4453 35.1914C33.3021 34.7747 33.0286 34.3971 32.625 34.0586C32.2214 33.707 31.6549 33.362 30.9258 33.0234C30.1966 32.6849 29.2526 32.3333 28.0938 31.9688C26.8047 31.5521 25.5807 31.0833 24.4219 30.5625C23.276 30.0417 22.2604 29.4362 21.375 28.7461C20.5026 28.043 19.8125 27.2292 19.3047 26.3047C18.8099 25.3802 18.5625 24.306 18.5625 23.082C18.5625 21.8971 18.8229 20.8229 19.3438 19.8594C19.8646 18.8828 20.5938 18.0495 21.5312 17.3594C22.4688 16.6562 23.5755 16.1159 24.8516 15.7383C26.1406 15.3607 27.5534 15.1719 29.0898 15.1719C31.1862 15.1719 33.0156 15.5495 34.5781 16.3047C36.1406 17.0599 37.3516 18.0951 38.2109 19.4102C39.0833 20.7253 39.5195 22.2292 39.5195 23.9219H33.6992C33.6992 23.0885 33.5234 22.3594 33.1719 21.7344C32.8333 21.0964 32.3125 20.5951 31.6094 20.2305C30.9193 19.8659 30.0469 19.6836 28.9922 19.6836C27.9766 19.6836 27.1302 19.8398 26.4531 20.1523C25.776 20.4518 25.2682 20.862 24.9297 21.3828C24.5911 21.8906 24.4219 22.4635 24.4219 23.1016C24.4219 23.5833 24.5391 24.0195 24.7734 24.4102C25.0208 24.8008 25.3854 25.1654 25.8672 25.5039C26.349 25.8424 26.9414 26.1615 27.6445 26.4609C28.3477 26.7604 29.1615 27.0534 30.0859 27.3398C31.6354 27.8086 32.9961 28.3359 34.168 28.9219C35.3529 29.5078 36.3424 30.1654 37.1367 30.8945C37.931 31.6237 38.5299 32.4505 38.9336 33.375C39.3372 34.2995 39.5391 35.3477 39.5391 36.5195C39.5391 37.7565 39.2982 38.8633 38.8164 39.8398C38.3346 40.8164 37.638 41.6432 36.7266 42.3203C35.8151 42.9974 34.7279 43.5117 33.4648 43.8633C32.2018 44.2148 30.7891 44.3906 29.2266 44.3906C27.8203 44.3906 26.4336 44.2083 25.0664 43.8438C23.6992 43.4661 22.4557 42.8997 21.3359 42.1445C20.2292 41.3893 19.3438 40.4258 18.6797 39.2539C18.0156 38.082 17.6836 36.6953 17.6836 35.0938H23.5625C23.5625 35.9792 23.6992 36.7279 23.9727 37.3398C24.2461 37.9518 24.6302 38.4466 25.125 38.8242C25.6328 39.2018 26.2318 39.4753 26.9219 39.6445C27.625 39.8138 28.3932 39.8984 29.2266 39.8984C30.2422 39.8984 31.0755 39.7552 31.7266 39.4688C32.3906 39.1823 32.8789 38.7852 33.1914 38.2773C33.5169 37.7695 33.6797 37.1966 33.6797 36.5586ZM53.5234 22.8672V26.8516H41.2188V22.8672H53.5234ZM44.2656 17.6523H49.8906V37.6328C49.8906 38.2448 49.9688 38.7135 50.125 39.0391C50.2943 39.3646 50.5417 39.5924 50.8672 39.7227C51.1927 39.8398 51.6029 39.8984 52.0977 39.8984C52.4492 39.8984 52.7617 39.8854 53.0352 39.8594C53.3216 39.8203 53.5625 39.7812 53.7578 39.7422L53.7773 43.8828C53.2956 44.0391 52.7747 44.1628 52.2148 44.2539C51.6549 44.3451 51.0365 44.3906 50.3594 44.3906C49.1224 44.3906 48.0417 44.1888 47.1172 43.7852C46.2057 43.3685 45.5026 42.7044 45.0078 41.793C44.513 40.8815 44.2656 39.6836 44.2656 38.1992V17.6523ZM69.2266 38.9414V22.8672H74.8516V44H69.5586L69.2266 38.9414ZM69.8516 34.6055L71.5117 34.5664C71.5117 35.9727 71.349 37.2812 71.0234 38.4922C70.6979 39.6901 70.2096 40.7318 69.5586 41.6172C68.9076 42.4896 68.0872 43.1732 67.0977 43.668C66.1081 44.1497 64.9427 44.3906 63.6016 44.3906C62.5729 44.3906 61.6224 44.2474 60.75 43.9609C59.8906 43.6615 59.1484 43.1992 58.5234 42.5742C57.9115 41.9362 57.4297 41.1224 57.0781 40.1328C56.7396 39.1302 56.5703 37.9258 56.5703 36.5195V22.8672H62.1953V36.5586C62.1953 37.1836 62.2669 37.7109 62.4102 38.1406C62.5664 38.5703 62.7812 38.9219 63.0547 39.1953C63.3281 39.4688 63.6471 39.6641 64.0117 39.7812C64.3893 39.8984 64.806 39.957 65.2617 39.957C66.4206 39.957 67.332 39.7227 67.9961 39.2539C68.6732 38.7852 69.1484 38.1471 69.4219 37.3398C69.7083 36.5195 69.8516 35.6081 69.8516 34.6055ZM91.6289 39.3906V14H97.293V44H92.1953L91.6289 39.3906ZM78.2695 33.6875V33.2773C78.2695 31.6628 78.4518 30.1979 78.8164 28.8828C79.181 27.5547 79.7148 26.4154 80.418 25.4648C81.1211 24.5143 81.987 23.7786 83.0156 23.2578C84.0443 22.737 85.2161 22.4766 86.5312 22.4766C87.7682 22.4766 88.849 22.737 89.7734 23.2578C90.7109 23.7786 91.5052 24.5208 92.1562 25.4844C92.8203 26.4349 93.3542 27.5612 93.7578 28.8633C94.1615 30.1523 94.4544 31.5651 94.6367 33.1016V34C94.4544 35.4714 94.1615 36.8385 93.7578 38.1016C93.3542 39.3646 92.8203 40.4714 92.1562 41.4219C91.5052 42.3594 90.7109 43.0885 89.7734 43.6094C88.8359 44.1302 87.7422 44.3906 86.4922 44.3906C85.1771 44.3906 84.0052 44.1237 82.9766 43.5898C81.9609 43.056 81.1016 42.3073 80.3984 41.3438C79.7083 40.3802 79.181 39.2474 78.8164 37.9453C78.4518 36.6432 78.2695 35.224 78.2695 33.6875ZM83.8945 33.2773V33.6875C83.8945 34.5599 83.9596 35.3737 84.0898 36.1289C84.2331 36.8841 84.4609 37.5547 84.7734 38.1406C85.099 38.7135 85.5156 39.1628 86.0234 39.4883C86.5443 39.8008 87.1758 39.957 87.918 39.957C88.8815 39.957 89.6758 39.7422 90.3008 39.3125C90.9258 38.8698 91.401 38.2643 91.7266 37.4961C92.0651 36.7279 92.2604 35.8424 92.3125 34.8398V32.2812C92.2734 31.4609 92.1562 30.7253 91.9609 30.0742C91.7786 29.4102 91.5052 28.8438 91.1406 28.375C90.7891 27.9062 90.3464 27.5417 89.8125 27.2812C89.2917 27.0208 88.6732 26.8906 87.957 26.8906C87.2279 26.8906 86.6029 27.0599 86.082 27.3984C85.5612 27.724 85.138 28.1732 84.8125 28.7461C84.5 29.319 84.2656 29.9961 84.1094 30.7773C83.9661 31.5456 83.8945 32.3789 83.8945 33.2773ZM107.625 22.8672V44H101.98V22.8672H107.625ZM101.629 17.3594C101.629 16.5391 101.915 15.862 102.488 15.3281C103.061 14.7943 103.829 14.5273 104.793 14.5273C105.743 14.5273 106.505 14.7943 107.078 15.3281C107.664 15.862 107.957 16.5391 107.957 17.3594C107.957 18.1797 107.664 18.8568 107.078 19.3906C106.505 19.9245 105.743 20.1914 104.793 20.1914C103.829 20.1914 103.061 19.9245 102.488 19.3906C101.915 18.8568 101.629 18.1797 101.629 17.3594ZM111.375 33.6484V33.2383C111.375 31.6888 111.596 30.263 112.039 28.9609C112.482 27.6458 113.126 26.5065 113.973 25.543C114.819 24.5794 115.861 23.8307 117.098 23.2969C118.335 22.75 119.754 22.4766 121.355 22.4766C122.957 22.4766 124.383 22.75 125.633 23.2969C126.883 23.8307 127.931 24.5794 128.777 25.543C129.637 26.5065 130.288 27.6458 130.73 28.9609C131.173 30.263 131.395 31.6888 131.395 33.2383V33.6484C131.395 35.1849 131.173 36.6107 130.73 37.9258C130.288 39.2279 129.637 40.3672 128.777 41.3438C127.931 42.3073 126.889 43.056 125.652 43.5898C124.415 44.1237 122.996 44.3906 121.395 44.3906C119.793 44.3906 118.367 44.1237 117.117 43.5898C115.88 43.056 114.832 42.3073 113.973 41.3438C113.126 40.3672 112.482 39.2279 112.039 37.9258C111.596 36.6107 111.375 35.1849 111.375 33.6484ZM117 33.2383V33.6484C117 34.5339 117.078 35.3607 117.234 36.1289C117.391 36.8971 117.638 37.5742 117.977 38.1602C118.328 38.7331 118.784 39.1823 119.344 39.5078C119.904 39.8333 120.587 39.9961 121.395 39.9961C122.176 39.9961 122.846 39.8333 123.406 39.5078C123.966 39.1823 124.415 38.7331 124.754 38.1602C125.092 37.5742 125.34 36.8971 125.496 36.1289C125.665 35.3607 125.75 34.5339 125.75 33.6484V33.2383C125.75 32.3789 125.665 31.5716 125.496 30.8164C125.34 30.0482 125.086 29.3711 124.734 28.7852C124.396 28.1862 123.947 27.7174 123.387 27.3789C122.827 27.0404 122.15 26.8711 121.355 26.8711C120.561 26.8711 119.884 27.0404 119.324 27.3789C118.777 27.7174 118.328 28.1862 117.977 28.7852C117.638 29.3711 117.391 30.0482 117.234 30.8164C117.078 31.5716 117 32.3789 117 33.2383ZM27.4785 87.1763C28.5918 87.1763 29.6318 86.9712 30.5986 86.561C31.5801 86.1362 32.3857 85.5137 33.0156 84.6934C33.6602 83.8584 34.0264 82.8403 34.1143 81.6392H36.6191C36.5459 83.1479 36.0845 84.4956 35.2349 85.6821C34.3999 86.854 33.3013 87.7769 31.939 88.4507C30.5913 89.1099 29.1045 89.4395 27.4785 89.4395C25.8232 89.4395 24.3584 89.1392 23.084 88.5386C21.8242 87.938 20.7695 87.103 19.9199 86.0337C19.0703 84.9497 18.4258 83.6899 17.9863 82.2544C17.5615 80.8042 17.3491 79.2441 17.3491 77.5742V76.6514C17.3491 74.9814 17.5615 73.4287 17.9863 71.9932C18.4258 70.543 19.0703 69.2832 19.9199 68.2139C20.7695 67.1299 21.8242 66.2876 23.084 65.687C24.3438 65.0864 25.8013 64.7861 27.4565 64.7861C29.1558 64.7861 30.6792 65.1304 32.0269 65.8188C33.3892 66.5073 34.4731 67.4814 35.2788 68.7412C36.0991 70.001 36.5459 71.4951 36.6191 73.2236H34.1143C34.041 71.9492 33.7041 70.8506 33.1035 69.9277C32.5029 69.0049 31.7119 68.2944 30.7305 67.7964C29.749 67.2983 28.6577 67.0493 27.4565 67.0493C26.1089 67.0493 24.959 67.313 24.0068 67.8403C23.0547 68.353 22.2783 69.0635 21.6777 69.9717C21.0918 70.8652 20.6597 71.8906 20.3813 73.0479C20.103 74.1904 19.9639 75.3916 19.9639 76.6514V77.5742C19.9639 78.8486 20.0957 80.0645 20.3594 81.2217C20.6377 82.3643 21.0698 83.3823 21.6558 84.2759C22.2563 85.1694 23.0327 85.8799 23.9849 86.4072C24.9517 86.9199 26.1162 87.1763 27.4785 87.1763ZM40.4644 77.4863V76.7612C40.4644 75.0327 40.7134 73.436 41.2114 71.9712C41.7095 70.5063 42.4199 69.2393 43.3428 68.1699C44.2803 67.1006 45.4009 66.2729 46.7046 65.687C48.0083 65.0864 49.4585 64.7861 51.0552 64.7861C52.6665 64.7861 54.124 65.0864 55.4277 65.687C56.7314 66.2729 57.8521 67.1006 58.7896 68.1699C59.7271 69.2393 60.4448 70.5063 60.9429 71.9712C61.4409 73.436 61.6899 75.0327 61.6899 76.7612V77.4863C61.6899 79.2148 61.4409 80.8115 60.9429 82.2764C60.4448 83.7266 59.7271 84.9863 58.7896 86.0557C57.8667 87.125 56.7534 87.96 55.4497 88.5605C54.146 89.1465 52.6958 89.4395 51.0991 89.4395C49.4878 89.4395 48.0303 89.1465 46.7266 88.5605C45.4229 87.96 44.3022 87.125 43.3647 86.0557C42.4272 84.9863 41.7095 83.7266 41.2114 82.2764C40.7134 80.8115 40.4644 79.2148 40.4644 77.4863ZM43.0791 76.7612V77.4863C43.0791 78.79 43.2549 80.0278 43.6064 81.1997C43.958 82.3569 44.4707 83.3896 45.1445 84.2979C45.8184 85.1914 46.6533 85.8945 47.6494 86.4072C48.6455 86.9199 49.7954 87.1763 51.0991 87.1763C52.3882 87.1763 53.5234 86.9199 54.5049 86.4072C55.501 85.8945 56.3359 85.1914 57.0098 84.2979C57.6836 83.3896 58.189 82.3569 58.5259 81.1997C58.8774 80.0278 59.0532 78.79 59.0532 77.4863V76.7612C59.0532 75.4722 58.8774 74.249 58.5259 73.0918C58.189 71.9346 57.6763 70.9019 56.9878 69.9937C56.314 69.0854 55.479 68.3677 54.4829 67.8403C53.4868 67.313 52.3442 67.0493 51.0552 67.0493C49.7661 67.0493 48.6235 67.313 47.6274 67.8403C46.646 68.3677 45.811 69.0854 45.1226 69.9937C44.4487 70.9019 43.936 71.9346 43.5845 73.0918C43.2476 74.249 43.0791 75.4722 43.0791 76.7612ZM82.5859 84.3857V55.25H85.2227V89H82.7617L82.5859 84.3857ZM66.0845 77.3545V76.8931C66.0845 75.0474 66.2969 73.3848 66.7217 71.9053C67.1465 70.4111 67.7544 69.1367 68.5454 68.082C69.3511 67.0127 70.3179 66.1997 71.4458 65.6431C72.5737 65.0718 73.8481 64.7861 75.269 64.7861C76.6606 64.7861 77.8911 65.0132 78.9604 65.4673C80.0298 65.9214 80.9453 66.5732 81.707 67.4229C82.4834 68.2725 83.106 69.2832 83.5747 70.4551C84.0581 71.627 84.4097 72.9307 84.6294 74.3662V80.2329C84.4536 81.5806 84.1313 82.8184 83.6626 83.9463C83.1938 85.0596 82.5713 86.0337 81.7949 86.8687C81.0186 87.689 80.0811 88.3262 78.9824 88.7803C77.8984 89.2197 76.646 89.4395 75.2251 89.4395C73.8188 89.4395 72.5518 89.1465 71.4238 88.5605C70.2959 87.9746 69.3364 87.147 68.5454 86.0776C67.7544 84.9937 67.1465 83.7119 66.7217 82.2324C66.2969 80.7529 66.0845 79.127 66.0845 77.3545ZM68.7212 76.8931V77.3545C68.7212 78.7461 68.8604 80.0352 69.1387 81.2217C69.417 82.4082 69.8418 83.4409 70.4131 84.3198C70.9844 85.1987 71.7095 85.8872 72.5884 86.3853C73.4673 86.8833 74.5073 87.1323 75.7085 87.1323C77.2173 87.1323 78.4844 86.8467 79.5098 86.2754C80.5352 85.6895 81.3555 84.9204 81.9707 83.9683C82.5859 83.0015 83.0327 81.9468 83.311 80.8042V73.9707C83.1353 73.1943 82.8789 72.4033 82.542 71.5977C82.2051 70.792 81.7437 70.0522 81.1577 69.3784C80.5864 68.6899 79.854 68.1406 78.9604 67.7305C78.0815 67.3057 77.0122 67.0933 75.7524 67.0933C74.5366 67.0933 73.4893 67.3423 72.6104 67.8403C71.7314 68.3384 70.999 69.0342 70.4131 69.9277C69.8418 70.8066 69.417 71.8394 69.1387 73.0259C68.8604 74.2124 68.7212 75.5015 68.7212 76.8931ZM101.329 89.4395C99.7759 89.4395 98.3477 89.1538 97.0439 88.5825C95.7549 88.0112 94.627 87.2056 93.6602 86.1655C92.708 85.1255 91.9683 83.895 91.4409 82.4741C90.9282 81.0386 90.6719 79.4712 90.6719 77.772V76.8271C90.6719 74.9961 90.9429 73.3408 91.4849 71.8613C92.0269 70.3818 92.7739 69.1147 93.7261 68.0601C94.6782 67.0054 95.7622 66.1997 96.978 65.6431C98.2085 65.0718 99.4976 64.7861 100.845 64.7861C102.354 64.7861 103.694 65.0571 104.866 65.5991C106.038 66.1265 107.02 66.8809 107.811 67.8623C108.616 68.8291 109.224 69.979 109.634 71.312C110.044 72.6304 110.25 74.0879 110.25 75.6846V77.2886H92.2539V75.0474H107.635V74.7397C107.605 73.4067 107.334 72.1616 106.822 71.0044C106.324 69.8325 105.577 68.8804 104.581 68.1479C103.584 67.4155 102.339 67.0493 100.845 67.0493C99.7319 67.0493 98.7065 67.2837 97.769 67.7524C96.8462 68.2212 96.0479 68.895 95.374 69.7739C94.7148 70.6382 94.2021 71.6709 93.8359 72.8721C93.4844 74.0586 93.3086 75.377 93.3086 76.8271V77.772C93.3086 79.0903 93.499 80.3208 93.8799 81.4634C94.2754 82.5913 94.832 83.5874 95.5498 84.4517C96.2822 85.3159 97.1465 85.9897 98.1426 86.4731C99.1387 86.9565 100.237 87.1982 101.438 87.1982C102.845 87.1982 104.09 86.9419 105.174 86.4292C106.258 85.9019 107.232 85.0742 108.096 83.9463L109.744 85.2207C109.231 85.9824 108.587 86.6855 107.811 87.3301C107.049 87.9746 106.133 88.4873 105.064 88.8682C103.995 89.249 102.75 89.4395 101.329 89.4395ZM126.18 87.396C126.18 86.8833 126.341 86.4512 126.663 86.0996C127 85.7334 127.454 85.5503 128.025 85.5503C128.611 85.5503 129.073 85.7261 129.41 86.0776C129.747 86.4292 129.915 86.8687 129.915 87.396C129.915 87.894 129.747 88.3188 129.41 88.6704C129.073 89.022 128.611 89.1978 128.025 89.1978C127.454 89.1978 127 89.022 126.663 88.6704C126.341 88.3188 126.18 87.894 126.18 87.396Z" fill="white"/>
<rect x="0.5" y="0.5" width="148" height="99" stroke="white"/>
</svg>
